<svg width="174" height="44" viewBox="0 0 174 44" fill="none" xmlns="http://www.w3.org/2000/svg">
<g clip-path="url(#clip0_4420_429)">
<path d="M129.283 16.8517V20.1434H138.784V23.2269H129.283V29.8493H125.322V13.7682H142.956V16.8517H129.269H129.283ZM146.772 29.8493V13.7682H150.733V29.8493H146.772ZM166.236 16.8517V29.8493H162.274V16.8517H154.523V13.7682H173.987V16.8517H166.236Z" fill="#C7261F"/>
<path d="M102.871 29.8493V13.7682H120.505V16.8517H106.819V20.1434H116.32V23.2269H106.819V26.7658H121.137V29.8493H102.871ZM92.8693 29.8493L81.8413 18.3609H81.7755V29.8493H77.8144V13.7682H82.4204L93.4484 25.2696H93.5405V13.7682H97.5016V29.8493H92.8693ZM68.6946 29.8493V13.7682H72.6557V29.8493H68.6946ZM58.9037 29.8493L47.8757 18.3609H47.8099V29.8493H43.8488V13.7682H48.4547L59.4827 25.2696H59.5748V13.7682H63.5359V29.8493H58.9037Z" fill="white"/>
<path fill-rule="evenodd" clip-rule="evenodd" d="M22.6087 41.1555L18.845 43.3022L11.3043 38.9957L22.6087 32.5425V41.1425V41.1555ZM37.6768 32.5555V11.049L30.1361 6.74249V36.849L37.6768 32.5425V32.5555ZM15.0681 19.649L22.6087 15.3425V23.9425L15.0681 28.249V19.649ZM0 11.049V32.5555L7.54061 36.862V15.3555L26.3724 4.60875L18.8318 0.302246L0 11.049Z" fill="#C7261F"/>
</g>
<defs>
<clipPath id="clip0_4420_429">
<rect width="174" height="43" fill="white" transform="translate(0 0.302246)"/>
</clipPath>
</defs>
</svg>
