<svg width="174" height="43" viewBox="0 0 174 43" fill="none" xmlns="http://www.w3.org/2000/svg">
<g clip-path="url(#clip0_4409_4)">
<path d="M129.283 16.5495V19.8412H138.784V22.9247H129.283V29.547H125.322V13.466H142.956V16.5495H129.269H129.283ZM146.772 29.547V13.466H150.733V29.547H146.772ZM166.236 16.5495V29.547H162.274V16.5495H154.523V13.466H173.987V16.5495H166.236Z" fill="#C7261F"/>
<path d="M102.871 29.547V13.466H120.505V16.5495H106.819V19.8412H116.32V22.9247H106.819V26.4635H121.137V29.547H102.871ZM92.8692 29.547L81.8412 18.0587H81.7754V29.547H77.8143V13.466H82.4203L93.4482 24.9673H93.5404V13.466H97.5015V29.547H92.8692ZM68.6945 29.547V13.466H72.6556V29.547H68.6945ZM58.9035 29.547L47.8756 18.0587H47.8098V29.547H43.8486V13.466H48.4546L59.4826 24.9673H59.5747V13.466H63.5358V29.547H58.9035Z" fill="white"/>
<path fill-rule="evenodd" clip-rule="evenodd" d="M22.6087 40.8533L18.845 43L11.3043 38.6935L22.6087 32.2402V40.8402V40.8533ZM37.6768 32.2533V10.7467L30.1361 6.44024V36.5467L37.6768 32.2402V32.2533ZM15.0681 19.3467L22.6087 15.0402V23.6402L15.0681 27.9467V19.3467ZM0 10.7467V32.2533L7.54061 36.5598V15.0533L26.3724 4.30651L18.8318 0L0 10.7467Z" fill="#C7261F"/>
</g>
<defs>
<clipPath id="clip0_4409_4">
<rect width="174" height="43" fill="white"/>
</clipPath>
</defs>
</svg>
