<svg width="175" height="44" viewBox="0 0 175 44" fill="none" xmlns="http://www.w3.org/2000/svg">
<g clip-path="url(#clip0_4420_510)">
<path d="M129.783 17.4568V20.7485H139.284V23.832H129.783V30.4544H125.822V14.3733H143.456V17.4568H129.77H129.783ZM147.272 30.4544V14.3733H151.233V30.4544H147.272ZM166.736 17.4568V30.4544H162.775V17.4568H155.023V14.3733H174.487V17.4568H166.736Z" fill="#C7261F"/>
<path d="M103.371 30.4544V14.3733H121.005V17.4568H107.319V20.7485H116.82V23.832H107.319V27.3709H121.637V30.4544H103.371ZM93.3693 30.4544L82.3413 18.966H82.2755V30.4544H78.3144V14.3733H82.9204L93.9484 25.8747H94.0405V14.3733H98.0016V30.4544H93.3693ZM69.1946 30.4544V14.3733H73.1557V30.4544H69.1946ZM59.4037 30.4544L48.3757 18.966H48.3099V30.4544H44.3488V14.3733H48.9547L59.9827 25.8747H60.0748V14.3733H64.0359V30.4544H59.4037Z" fill="white"/>
<path fill-rule="evenodd" clip-rule="evenodd" d="M23.1087 41.7605L19.345 43.9072L11.8043 39.6007L23.1087 33.1475V41.7475V41.7605ZM38.1768 33.1605V11.654L30.6361 7.34747V37.454L38.1768 33.1475V33.1605ZM15.5681 20.254L23.1087 15.9475V24.5475L15.5681 28.854V20.254ZM0.5 11.654V33.1605L8.04061 37.467V15.9605L26.8724 5.21373L19.3318 0.907227L0.5 11.654Z" fill="#C7261F"/>
</g>
<defs>
<clipPath id="clip0_4420_510">
<rect width="174" height="43" fill="white" transform="translate(0.5 0.907227)"/>
</clipPath>
</defs>
</svg>
